#!OML:ASF E:\emotionWalksFemale\Project 1\Capture day 1\Session 1\Female1.ASF
:FULLY-SPECIFIED
:DEGREES
306
root 10.3347 13.8582 11.8553 384.342 -70.8583 -16.3836
lowerback 19.1829 0.660688 1.77401
upperback -2.42235 1.64899 2.82083
thorax -13.6175 0.751297 1.66258
lowerneck -5.21596 -7.52629 -5.02712
upperneck -11.7696 -9.83378 5.23443
head -2.34783 -4.95984 2.54996
rclavicle -5.2181e-015 2.38542e-015
rhumerus -42.3185 43.6306 -92.8603
rradius 34.0936
rwrist 46.6102
rhand -5.13891 -48.9827
rfingers 7.12502
rthumb 20.6599 282.097
lclavicle -5.2181e-015 2.38542e-015
lhumerus 32.148 4.94046 47.1894
lradius 81.3686
lwrist 1.77294
lhand -19.2786 -43.042
lfingers 7.12502
lthumb 7.03627 -13.179
rfemur -38.5244 -0.403348 30.7482
rtibia 64.0587
rfoot -29.9116 -22.6006
rtoes -5.38891
lfemur -43.3119 -6.70273 -20.5425
ltibia 68.6423
lfoot -36.0887 -0.644469
ltoes -13.5255
307
root 10.3548 13.8323 11.796 384.174 -71.1413 -16.2883
lowerback 19.3751 0.637356 1.7907
upperback -2.29711 1.6282 2.87419
thorax -13.5858 0.741739 1.71774
lowerneck -5.57203 -7.48985 -5.76813
upperneck -11.5384 -9.7343 5.4145
head -2.17162 -4.88457 2.70743
rclavicle 1.76918e-014 -9.14409e-015
rhumerus -38.3091 42.7163 -90.2263
rradius 33.2931
rwrist 48.5503
rhand -5.8609 -48.8117
rfingers 7.12502
rthumb 19.9661 282.194
lclavicle 1.76918e-014 -9.14409e-015
lhumerus 28.832 5.81286 48.0357
lradius 80.6978
lwrist 2.2916
lhand -18.9181 -41.3001
lfingers 7.12502
lthumb 7.38422 -11.449
rfemur -38.7437 0.0540482 30.8334
rtibia 64.4021
rfoot -30.2083 -22.6123
rtoes -4.64659
lfemur -43.5342 -6.62988 -20.3963
ltibia 68.9581
lfoot -36.2014 -0.632709
ltoes -12.8434
308
root 10.3726 13.7943 11.7399 384.265 -71.4003 -16.3073
lowerback 19.5241 0.582535 1.83554
upperback -2.27872 1.57477 2.91541
thorax -13.6517 0.71488 1.75501
lowerneck -5.82382 -7.44872 -6.51036
upperneck -11.4401 -9.61854 5.75794
head -2.05187 -4.80617 2.93351
rclavicle 1.03865e-014 -2.82274e-014
rhumerus -34.6774 41.7645 -88.1
rradius 33.0578
rwrist 48.5969
rhand -6.23277 -49.6491
rfingers 7.12502
rthumb 19.6086 281.32
lclavicle 1.03865e-014 -2.82274e-014
lhumerus 25.2489 6.52982 48.2946
lradius 80.1936
lwrist 3.37871
lhand -17.9122 -39.6965
lfingers 7.12502
lthumb 8.35505 -9.88172
rfemur -39.2015 0.70408 30.9927
rtibia 64.8803
rfoot -30.7139 -22.8668
rtoes -3.83141
lfemur -43.9889 -6.59414 -20.2359
ltibia 69.4082
lfoot -36.1091 0.790087
ltoes -18.4931
309
root 10.3887 13.7483 11.6877 384.537 -71.6883 -16.3476
lowerback 19.148 0.50386 1.93418
upperback -2.17156 1.47415 2.9261
thorax -13.3005 0.662153 1.73943
lowerneck -5.70661 -7.34427 -7.34227
upperneck -11.8326 -9.42425 6.33896
head -2.15156 -4.69426 3.30079
rclavicle 1.18774e-014 1.47101e-014
rhumerus -31.1725 41.0362 -86.3777
rradius 33.4221
rwrist 47.0676
rhand -6.39383 -51.7367
rfingers 7.12502
rthumb 19.4537 279.216
lclavicle 1.18774e-014 1.47101e-014
lhumerus 21.6754 7.44797 48.6805
lradius 79.532
lwrist 4.23371
lhand -16.4173 -38.5019
lfingers 7.12502
lthumb 9.79752 -8.74978
rfemur -39.8455 1.55947 31.1179
rtibia 65.3583
rfoot -31.0052 -23.3758
rtoes -3.52953
lfemur -44.6361 -6.54315 -20.1416
ltibia 69.9614
lfoot -36.1206 3.10192
ltoes -26.0351
310
root 10.4039 13.6999 11.6388 385.301 -71.8976 -16.7697
lowerback 18.8663 0.391786 2.19244
upperback -2.2428 1.3834 2.9844
thorax -13.2117 0.603924 1.68583
lowerneck -5.53921 -7.15449 -8.09079
upperneck -12.1143 -9.1347 6.71715
head -2.24798 -4.53126 3.59148
rclavicle 1.49089e-015 -3.18055e-014
rhumerus -28.634 40.8081 -85.1318
rradius 34.9354
rwrist 44.0469
rhand -7.17867 -52.3279
rfingers 7.12502
rthumb 18.699 278.551
lclavicle 1.49089e-015 -3.18055e-014
lhumerus 17.8892 8.18239 48.9638
lradius 78.9149
lwrist 4.78656
lhand -15.2854 -37.3054
lfingers 7.12502
lthumb 10.8895 -7.6078
rfemur -40.5706 2.59748 31.3151
rtibia 65.715
rfoot -31.0321 -23.9241
rtoes -3.13372
lfemur -45.459 -6.52962 -19.8615
ltibia 70.4975
lfoot -36.1805 4.78546
ltoes -30.1024
